# xmcd
#
# Track frame offsets:
#	225
#	8486
#	20352
#	37849
#	58886
#	71881
#	88721
#	100081
#	111381
#	123547
#	134405
#
# Disc length: 2079 seconds
#
# Revision: 1
# Processed by: cddbd v1.5.2PL0 Copyright (c) Steve Scherf et al.
# Submitted via: audiograbber 1.83.01
#
DISCID=93081c0b
DTITLE=Ultrababyfat - No Ringo No
DYEAR=1900
DGENRE=
TTITLE0=The Courtship Of Eddie's Father
TTITLE1=Cool Shoes
TTITLE2=Mr. President
TTITLE3=Climb
TTITLE4=Pollyanna
TTITLE5=What's It To Ya
TTITLE6=Joke
TTITLE7=Got To Be Near
TTITLE8=Good Day
TTITLE9=More Than You
TTITLE10=Bad Taste
EXTD=
EXTT0=
EXTT1=
EXTT2=
EXTT3=
EXTT4=
EXTT5=
EXTT6=
EXTT7=
EXTT8=
EXTT9=
EXTT10=
PLAYORDER=
